<svg version="1.1" xmlns="http://www.w3.org/2000/svg" width="400" height="400" viewBox="0 0 400 400"><path d="M153.547 120.253q0.231 0.04 0.462 0.08 0.489 0.085 0.978 0.171c0.873 0.154 1.746 0.302 2.62 0.449 0.089 0.015 0.177 0.03 0.268 0.045 9.059 1.527 18.273 2.382 29.482 2.97 0.187 0.009 0.187 0.009 0.377 0.018q1.101 0.053 2.203 0.098 0.353 0.014 0.706 0.03c2.958 0.127 5.92 0.104 8.88 0.103q0.777 0 1.554 0.002c3.946 0.009 7.881 -0.044 11.824 -0.221l0.272 -0.012q1.5 -0.068 3 -0.157 0.319 -0.019 0.638 -0.038c9.591 -0.563 19.193 -1.555 29.188 -3.284l0.248 -0.044a84.5 84.5 0 0 0 1.087 -0.199c1.866 -0.341 3.634 -0.187 5.267 0.833 1.534 1.076 2.396 2.434 2.762 4.26 0.127 0.8 0.092 1.62 0.087 2.427q0.001 0.327 0.002 0.655c0.001 0.596 0 1.192 -0.002 1.788 -0.001 0.644 0 1.289 0 1.933q0.001 1.674 -0.001 3.348 -0.003 1.759 -0.003 3.518v1.113c0 2.786 -0.002 5.572 -0.005 8.358a6397.5 6397.5 0 0 0 -0.004 8.109v1.415q0 3.103 -0.002 6.206l0 0.224 -0.001 0.89q-0.001 1.537 -0.001 3.073 0 1.985 -0.003 3.97 -0.002 0.955 -0.001 1.909c0.001 3.697 -0.061 7.389 -0.41 11.072l-0.026 0.276c-0.725 7.849 -2.368 15.557 -4.793 23.055 -0.023 0.07 -0.045 0.139 -0.068 0.211 -1.999 6.19 -4.723 12.249 -7.959 17.887a193.7 193.7 0 0 0 -0.536 0.944 63 63 0 0 1 -2.294 3.737c-0.299 0.451 -0.586 0.909 -0.868 1.371 -0.399 0.647 -0.836 1.258 -1.291 1.867 -0.296 0.397 -0.581 0.802 -0.865 1.208 -1.012 1.439 -2.054 2.847 -3.176 4.202 -0.203 0.246 -0.404 0.494 -0.605 0.742 -0.413 0.504 -0.833 1.002 -1.256 1.499a108.3 108.3 0 0 0 -0.558 0.662 50.5 50.5 0 0 1 -1.677 1.901c-0.2 0.218 -0.394 0.438 -0.585 0.663 -0.369 0.427 -0.771 0.82 -1.174 1.214 -0.281 0.276 -0.548 0.557 -0.804 0.857 -0.448 0.518 -0.933 0.999 -1.418 1.482a182.7 182.7 0 0 0 -0.476 0.477c-0.489 0.489 -0.981 0.969 -1.507 1.418 -0.32 0.276 -0.625 0.568 -0.933 0.858 -0.448 0.42 -0.897 0.837 -1.363 1.237 -0.226 0.197 -0.447 0.399 -0.669 0.6 -0.525 0.473 -1.069 0.919 -1.619 1.363l-0.366 0.3a77 77 0 0 1 -2.285 1.805 96.3 96.3 0 0 0 -1.323 1.023c-0.921 0.723 -1.863 1.407 -2.827 2.072l-0.409 0.284A172.2 172.2 0 0 1 210.1 261.4l-0.18 0.122c-3.4 2.304 -6.939 4.38 -10.593 6.255a59.1 59.1 0 0 0 -1.107 0.58c-3.491 1.886 -7.189 3.402 -10.911 4.766q-0.337 0.124 -0.674 0.248c-7.488 2.766 -15.233 4.618 -23.136 5.728l-0.255 0.036c-12.956 1.823 -12.956 1.823 -15.845 -0.136 -0.838 -0.643 -1.504 -1.36 -2 -2.3 -0.04 -0.071 -0.079 -0.143 -0.12 -0.216 -0.727 -1.446 -0.623 -3.118 -0.618 -4.687q0 -0.382 -0.001 -0.765 -0.001 -0.832 0 -1.663c0.001 -0.83 0.001 -1.66 0 -2.49 -0.001 -1.415 -0.001 -2.83 -0.001 -4.245q0.001 -2.15 0 -4.3l0 -0.275 -0.001 -1.107a14601.9 14601.9 0 0 1 -0.001 -10.924 25917.7 25917.7 0 0 0 0 -12.446q0 -3.503 -0.001 -7.007v-0.322q0 -5.084 0.001 -10.168v-0.333l0.001 -5.356q0.002 -10.621 0 -21.242l-0.001 -5.353 0 -0.333q-0.001 -5.079 -0.001 -10.157v-0.322a89120.2 89120.2 0 0 1 0.001 -10.127q0 -4.657 -0.001 -9.313v-0.308l0 -0.308a14606.6 14606.6 0 0 1 0.002 -11.38l0 -0.274q0.001 -2.145 -0.001 -4.289 -0.001 -2.108 0.001 -4.216 0.001 -1.236 -0.001 -2.472c-0.001 -0.612 0 -1.224 0.001 -1.835q0 -0.369 -0.001 -0.738c-0.006 -2.242 0.198 -4.242 1.814 -5.953 2.028 -1.907 4.491 -1.994 7.072 -1.522M157.4 133a20325 20325 0 0 0 -0.022 19.461l0 0.207q-0.003 3.31 -0.008 6.62 -0.006 3.504 -0.007 7.007 -0.001 2.095 -0.006 4.19 -0.003 1.441 -0.002 2.882c0 0.552 0 1.105 -0.002 1.657 -0.025 6.565 1.182 12.649 3.848 18.676l0.116 0.262c1.518 3.401 3.602 6.489 5.985 9.338l0.149 0.179c0.589 0.706 1.2 1.391 1.826 2.065l0.182 0.197c0.364 0.388 0.744 0.744 1.147 1.09 0.3 0.26 0.587 0.534 0.876 0.806A28.9 28.9 0 0 0 173.3 209.2l0.388 0.314c2.433 1.951 5.137 3.482 7.913 4.886l0.244 0.124c3.868 1.959 8.182 3.069 12.456 3.676l0.35 0.051c3.635 0.499 7.519 0.481 11.15 -0.051l0.366 -0.054c4.602 -0.697 8.975 -2.053 13.134 -4.146l0.271 -0.135c2.016 -1.004 3.987 -2.16 5.769 -3.542a34.6 34.6 0 0 1 0.487 -0.367c1.19 -0.892 2.298 -1.884 3.389 -2.894a48.5 48.5 0 0 1 0.579 -0.525c0.468 -0.417 0.91 -0.834 1.313 -1.314 0.198 -0.23 0.404 -0.451 0.613 -0.672 0.618 -0.657 1.182 -1.341 1.729 -2.057a59.2 59.2 0 0 1 0.495 -0.631c0.733 -0.927 1.427 -1.864 2.055 -2.864l0.136 -0.216c2.319 -3.695 4.168 -7.757 5.264 -11.984l0.079 -0.304c1.182 -4.635 1.337 -9.29 1.332 -14.046q-0.001 -0.794 0 -1.589 0 -1.372 -0.001 -2.744 -0.001 -1.983 -0.001 -3.967 0 -3.219 -0.002 -6.438 -0.001 -3.125 -0.002 -6.249v-0.39l-0.001 -1.937q-0.002 -8.018 -0.005 -16.036 -0.356 0.046 -0.711 0.093l-0.201 0.026c-7.621 1.003 -15.257 4.852 -20.988 9.882l-0.215 0.185A46.5 46.5 0 0 0 220.1 143.8l-0.245 0.217c-0.682 0.614 -1.336 1.254 -1.986 1.902l-0.257 0.256c-0.491 0.492 -0.961 0.996 -1.412 1.526l-0.267 0.306c-0.717 0.836 -1.385 1.703 -2.033 2.594l-0.15 0.206c-3.456 4.761 -5.975 10.118 -7.425 15.819 -0.505 1.963 -1.337 3.502 -3.099 4.606 -1.515 0.784 -3.243 1.012 -4.899 0.58 -0.919 -0.312 -1.716 -0.748 -2.427 -1.411h-0.2l-0.083 -0.182c-0.12 -0.246 -0.12 -0.246 -0.386 -0.505 -0.759 -0.871 -1.126 -2.003 -1.406 -3.103 -0.09 -0.349 -0.185 -0.697 -0.281 -1.044l-0.06 -0.217c-1.6 -5.742 -4.402 -11.169 -8.085 -15.849l-0.208 -0.268c-1.637 -2.083 -3.464 -4.122 -5.492 -5.832l-0.289 -0.256c-0.993 -0.874 -2.043 -1.665 -3.111 -2.445l-0.241 -0.177c-1.835 -1.343 -3.798 -2.561 -5.858 -3.527a34.3 34.3 0 0 1 -0.662 -0.326c-3.467 -1.724 -8.18 -3.704 -12.139 -3.669m71.7 89.838c-0.88 0.559 -1.782 1.068 -2.7 1.563l-0.257 0.14C220.098 227.814 213.431 229.919 206.6 230.7l-0.39 0.045c-3.871 0.436 -7.845 0.432 -11.719 0.04 -0.19 -0.019 -0.381 -0.036 -0.571 -0.053 -0.32 -0.033 -0.32 -0.033 -0.566 -0.083 -0.23 -0.049 -0.23 -0.049 -0.553 0.051 -0.311 0.355 -0.523 0.761 -0.744 1.175a75.1 75.1 0 0 1 -0.206 0.366 117.5 117.5 0 0 0 -0.43 0.769c-0.351 0.627 -0.726 1.239 -1.101 1.853l-0.219 0.36A83.4 83.4 0 0 1 188.4 237.9l-0.24 0.363c-1.012 1.534 -2.026 3.062 -3.117 4.541 -0.202 0.277 -0.397 0.557 -0.593 0.838 -0.604 0.865 -1.235 1.708 -1.882 2.542q-0.257 0.332 -0.513 0.664c-1.145 1.485 -2.339 2.927 -3.556 4.353l-0.149 0.175c-0.64 0.752 -1.287 1.494 -1.951 2.225l-0.431 0.481q-0.234 0.26 -0.469 0.519l-0.267 0.296c-0.635 0.698 -1.29 1.371 -1.963 2.031 -0.319 0.315 -0.626 0.634 -0.918 0.974 -0.356 0.413 -0.744 0.781 -1.145 1.149a392.5 392.5 0 0 0 -0.425 0.394l-0.202 0.187a21.9 21.9 0 0 0 -0.63 0.619c-0.296 0.3 -0.605 0.578 -0.925 0.853 -0.221 0.194 -0.438 0.392 -0.653 0.593a30.2 30.2 0 0 1 -1.607 1.387c-0.262 0.216 -0.514 0.439 -0.765 0.668 -0.636 0.578 -1.3 1.117 -1.977 1.644l-0.194 0.151q-0.189 0.147 -0.378 0.292c-0.323 0.239 -0.323 0.239 -0.551 0.563 1.137 -0.049 2.242 -0.277 3.356 -0.494l0.311 -0.06c6.223 -1.206 12.348 -2.876 18.232 -5.246l0.197 -0.079c3.838 -1.548 7.628 -3.274 11.21 -5.351a145.1 145.1 0 0 1 0.929 -0.532c2.253 -1.284 4.436 -2.655 6.564 -4.138l0.241 -0.168c0.794 -0.553 1.58 -1.115 2.351 -1.7a76.2 76.2 0 0 1 0.68 -0.509c1.364 -1.011 2.675 -2.082 3.965 -3.185q0.254 -0.216 0.509 -0.432a58.5 58.5 0 0 0 2.051 -1.826c0.273 -0.254 0.55 -0.502 0.828 -0.75 0.404 -0.361 0.786 -0.74 1.166 -1.126a8.7 8.7 0 0 1 0.572 -0.512c0.243 -0.202 0.449 -0.414 0.652 -0.656 0.477 -0.551 0.998 -1.056 1.518 -1.567 0.42 -0.415 0.822 -0.838 1.206 -1.285 0.242 -0.28 0.496 -0.547 0.748 -0.817a26.9 26.9 0 0 0 1.286 -1.49 32.7 32.7 0 0 1 0.614 -0.732c0.592 -0.689 1.145 -1.404 1.693 -2.128 0.241 -0.318 0.486 -0.632 0.735 -0.944 1.903 -2.391 3.581 -4.975 5.184 -7.574l0.181 -0.287c0.135 -0.201 0.135 -0.201 0.119 -0.413 -0.346 0 -0.616 0.254 -0.9 0.438" fill="#392E5E"/><path d="M179.067 158.725c1.383 1.128 2.406 2.572 2.633 4.375 0.059 0.875 0.045 1.754 0.043 2.63q0.001 0.385 0.002 0.77 0.001 0.804 0 1.609c-0.001 0.616 0 1.231 0.003 1.847 0.002 0.598 0.003 1.195 0.002 1.792q0 0.378 0.002 0.756c0.01 2.366 -0.229 4.37 -1.969 6.13 -1.234 1.162 -2.744 1.746 -4.439 1.804 -1.474 -0.05 -2.768 -0.571 -3.944 -1.438l-0.18 -0.126c-1.174 -0.899 -1.887 -2.448 -2.12 -3.874 -0.028 -0.395 -0.028 -0.789 -0.028 -1.185l-0.002 -0.349c-0.001 -0.379 -0.001 -0.758 -0.001 -1.137l-0.001 -0.594q-0.002 -0.932 -0.001 -1.865c0.001 -0.638 -0.001 -1.276 -0.003 -1.915q-0.003 -0.826 -0.002 -1.652 0 -0.492 -0.002 -0.983c-0.001 -0.366 -0.001 -0.732 0.001 -1.098l-0.002 -0.323c0.012 -1.675 0.642 -3.279 1.797 -4.498 2.144 -2.111 5.763 -2.513 8.209 -0.678" fill="#392E5F"/><path d="M229.061 158.822c1.318 1.057 2.166 2.506 2.439 4.178 0.028 0.394 0.029 0.786 0.029 1.18l0.002 0.348c0.002 0.378 0.002 0.755 0.003 1.133l0.002 0.792q0.002 0.83 0.002 1.66c0 0.636 0.002 1.272 0.005 1.907q0.004 0.824 0.004 1.647 0 0.49 0.003 0.98c0.013 2.378 -0.221 4.263 -1.948 6.053 -1.397 1.199 -3.056 1.819 -4.9 1.7 -1.845 -0.207 -3.328 -1.034 -4.512 -2.454 -1.319 -1.784 -1.335 -3.652 -1.332 -5.78q-0.001 -0.385 -0.002 -0.771 -0.001 -0.805 0 -1.61c0.001 -0.617 0 -1.233 -0.003 -1.849 -0.002 -0.598 -0.003 -1.196 -0.002 -1.794q0 -0.378 -0.002 -0.757c-0.01 -2.252 0.184 -4.157 1.828 -5.865L220.9 159.3l0.186 -0.193c2.113 -2.037 5.694 -2.009 7.975 -0.286" fill="#392E5F"/><path d="m171.7 158.7 0.2 0.1 -1.4 1.4 -0.2 -0.1a113.8 113.8 0 0 1 0.419 -0.475l0.236 -0.267c0.234 -0.246 0.476 -0.453 0.746 -0.658" fill="#685C81"/></svg>